<?xml version="1.0" standalone="no"?>
<!DOCTYPE svg PUBLIC "-//W3C//DTD SVG 20010904//EN"
 "http://www.w3.org/TR/2001/REC-SVG-20010904/DTD/svg10.dtd">
<svg version="1.0" xmlns="http://www.w3.org/2000/svg"
 width="1789.000000pt" height="610.000000pt" viewBox="0 0 1789.000000 610.000000"
 preserveAspectRatio="xMidYMid meet">

<g transform="translate(0.000000,610.000000) scale(0.100000,-0.100000)"
fill="#000000" stroke="none">
<path d="M0 3050 l0 -3050 8945 0 8945 0 0 3050 0 3050 -8945 0 -8945 0 0
-3050z m7740 2359 c0 -6 -44 -81 -98 -167 -229 -363 -1962 -3268 -2018 -3382
-107 -215 -168 -403 -208 -640 l-21 -125 -373 -3 c-302 -2 -373 0 -378 11 -9
25 48 283 96 427 60 182 146 379 257 585 47 88 378 634 735 1213 357 580 652
1061 656 1070 4 11 -7 7 -35 -13 -22 -17 -412 -298 -866 -625 -454 -327 -823
-598 -820 -602 2 -5 186 -8 409 -8 470 0 434 15 303 -124 -105 -111 -190 -175
-314 -236 -166 -82 -209 -88 -680 -106 l-410 -16 -80 -58 c-44 -31 -536 -386
-1093 -789 l-1014 -731 -448 0 c-247 0 -451 4 -454 8 -2 4 442 329 987 722
1177 849 1110 800 1104 806 -4 4 -1730 -59 -1935 -71 -66 -4 -102 -3 -102 4 0
20 419 396 487 437 130 78 277 123 465 143 60 7 424 11 961 11 l864 0 1174
847 c646 465 1235 888 1309 938 531 362 869 477 1418 484 82 1 122 -3 122 -10z
m1184 -236 c-15 -27 -446 -750 -957 -1608 -511 -858 -951 -1600 -978 -1650
-120 -226 -203 -482 -247 -770 l-7 -50 -360 -3 c-205 -1 -363 2 -368 7 -12 12
24 200 68 352 59 203 196 513 343 774 104 185 1450 2438 1506 2520 193 285
424 431 741 468 17 2 88 5 158 6 l129 1 -28 -47z m5845 -135 c-7 -13 -278
-473 -604 -1023 -325 -550 -615 -1040 -644 -1089 -49 -83 -51 -88 -24 -71 15
10 219 149 453 310 234 161 443 304 464 319 l39 26 383 0 c210 0 385 -4 388
-8 4 -6 -1167 -823 -1636 -1143 -4 -3 134 -437 307 -966 173 -528 315 -964
315 -967 0 -14 -305 -6 -369 10 -207 52 -382 214 -445 412 -13 42 -95 346
-182 675 -87 328 -161 596 -166 595 -4 -2 -144 -232 -311 -513 l-303 -510
-349 -3 c-192 -1 -352 1 -356 5 -7 8 1977 3374 2067 3505 62 92 202 239 274
288 170 115 350 166 603 169 l108 1 -12 -22z m-4809 -1528 c199 -11 500 -36
506 -43 3 -2 -184 -319 -414 -703 -459 -766 -495 -831 -575 -1014 -91 -209
-146 -398 -182 -623 l-6 -37 -334 0 -335 0 0 74 c0 41 5 109 11 151 6 42 9 78
7 80 -2 2 -41 -20 -88 -48 -165 -99 -410 -196 -625 -249 -71 -17 -121 -22
-235 -22 -132 -1 -150 1 -197 23 -65 29 -118 86 -134 143 -19 63 -14 200 10
292 31 116 100 284 215 521 159 327 299 556 465 762 98 122 270 290 378 370
239 177 522 287 833 322 108 12 473 13 700 1z m2165 0 c165 -11 357 -29 363
-35 2 -2 -59 -110 -135 -240 l-138 -237 -105 6 c-444 25 -651 18 -767 -26
-113 -42 -172 -129 -137 -203 20 -43 48 -65 250 -198 170 -112 249 -185 304
-280 92 -160 95 -323 10 -558 -50 -140 -110 -231 -224 -344 -167 -165 -339
-249 -618 -301 -112 -22 -501 -30 -694 -15 -170 13 -505 59 -517 71 -5 4 58
121 140 259 125 213 151 251 168 247 83 -19 377 -58 493 -66 160 -10 282 -1
368 30 157 55 244 198 183 300 -35 59 -68 88 -224 198 -319 225 -404 361 -375
598 51 415 464 724 1060 793 108 12 409 13 595 1z m4720 0 c202 -11 505 -37
512 -43 2 -2 -191 -328 -428 -723 -237 -396 -455 -766 -484 -824 -141 -280
-226 -537 -260 -782 l-6 -48 -336 0 -336 0 7 122 c3 68 9 138 12 157 l7 35
-39 -24 c-302 -182 -626 -295 -882 -307 -155 -7 -229 10 -296 68 -61 54 -81
110 -80 224 1 161 73 365 265 749 443 891 945 1316 1649 1395 108 12 474 13
695 1z m5 -2139 c142 -103 46 -326 -122 -280 -114 30 -155 165 -76 254 16 19
44 39 62 45 41 12 105 4 136 -19z"/>
<path d="M9270 3075 c-305 -62 -589 -280 -855 -660 -163 -233 -334 -547 -357
-657 -40 -194 122 -234 397 -98 96 48 228 137 312 210 34 29 385 582 752 1183
l23 37 -104 -1 c-57 0 -132 -7 -168 -14z"/>
<path d="M16160 3075 c-217 -44 -391 -146 -591 -345 -185 -184 -339 -400 -513
-718 -134 -243 -150 -368 -54 -418 110 -57 401 62 631 258 58 49 91 97 411
615 192 309 358 575 368 592 l20 31 -104 -1 c-56 0 -132 -7 -168 -14z"/>
<path d="M16725 1356 c-62 -28 -91 -85 -75 -146 32 -120 195 -120 231 0 27 88
-74 183 -156 146z m83 -42 c26 -18 29 -56 7 -78 -14 -14 -14 -18 0 -46 15 -29
15 -30 -4 -30 -13 0 -27 13 -38 33 l-18 32 -3 -32 c-2 -25 -8 -33 -23 -33 -17
0 -19 8 -19 78 0 43 3 82 7 85 12 13 68 7 91 -9z"/>
<path d="M16750 1275 c0 -18 5 -25 19 -25 23 0 34 23 18 39 -19 19 -37 12 -37
-14z"/>
</g>
</svg>
